<svg xmlns="http://www.w3.org/2000/svg" width="75.266" height="93.256" viewBox="0 0 75.266 93.256">
  <path id="Path_12227" data-name="Path 12227" d="M497.794,334.389a23.344,23.344,0,0,1-5.037-7.726,23.49,23.49,0,0,1,0-17.641,23.351,23.351,0,0,1,5.037-7.726,22.073,22.073,0,0,1,24.595-5.049,23.4,23.4,0,0,1,12.505,12.836,23.952,23.952,0,0,1,0,17.52,22.754,22.754,0,0,1-4.978,7.665l-16.12,16.546Zm30.284-52.254a37.816,37.816,0,0,0-14.224-2.919,36.305,36.305,0,0,0-26.61,11.254,37.8,37.8,0,0,0-8.238,12.714,39.975,39.975,0,0,0,0,29.321,37.8,37.8,0,0,0,8.238,12.714l26.551,27.252L540.464,345.1a37.666,37.666,0,0,0,8.3-12.774,39.809,39.809,0,0,0,0-28.956,37.657,37.657,0,0,0-8.3-12.775,36.73,36.73,0,0,0-12.386-8.456" transform="translate(-476.221 -279.214)" fill="#fff"/>
</svg>
